<?xml version="1.0" encoding="UTF-8" standalone="no"?>
<svg
   width="488.99609"
   height="750"
   viewBox="0 0 488.99609 750.00002"
   id="svg2"
   version="1.1"
   inkscape:version="1.2 (dc2aeda, 2022-05-15)"
   sodipodi:docname="Logo CA Vitry.svg"
   xml:space="preserve"
   xmlns:inkscape="http://www.inkscape.org/namespaces/inkscape"
   xmlns:sodipodi="http://sodipodi.sourceforge.net/DTD/sodipodi-0.dtd"
   xmlns="http://www.w3.org/2000/svg"
   xmlns:svg="http://www.w3.org/2000/svg"
   xmlns:rdf="http://www.w3.org/1999/02/22-rdf-syntax-ns#"
   xmlns:cc="http://creativecommons.org/ns#"
   xmlns:dc="http://purl.org/dc/elements/1.1/"><defs
     id="defs4" /><sodipodi:namedview
     id="base"
     pagecolor="#ffffff"
     bordercolor="#666666"
     borderopacity="1.0"
     inkscape:pageopacity="0.0"
     inkscape:pageshadow="2"
     inkscape:zoom="0.8058131"
     inkscape:cx="184.9064"
     inkscape:cy="317.07104"
     inkscape:document-units="px"
     inkscape:current-layer="layer1"
     showgrid="false"
     inkscape:window-width="1920"
     inkscape:window-height="893"
     inkscape:window-x="0"
     inkscape:window-y="25"
     inkscape:window-maximized="0"
     units="px"
     inkscape:document-rotation="0"
     inkscape:showpageshadow="2"
     inkscape:pagecheckerboard="0"
     inkscape:deskcolor="#d1d1d1"
     showguides="false" /><metadata
     id="metadata7"><rdf:RDF><cc:Work
         rdf:about=""><dc:format>image/svg+xml</dc:format><dc:type
           rdf:resource="http://purl.org/dc/dcmitype/StillImage" /><dc:title /></cc:Work></rdf:RDF></metadata><g
     inkscape:label="Calque 1"
     inkscape:groupmode="layer"
     id="layer1"
     transform="translate(2236.5735,186.0029)"><g
       id="g13457"
       transform="matrix(0.800055,0,0,0.800055,-447.19169,-37.19035)"
       style="stroke-width:1.24991"><g
         id="g3801"
         style="stroke-width:1.24991"><path
           id="path671"
           style="fill:#149052;fill-opacity:1;stroke:none;stroke-width:1.24991px;stroke-linecap:butt;stroke-linejoin:miter;stroke-opacity:1"
           d="M -2221.0051,68.708039 V 457.19437 c 0.116,10.6578 1.8143,13.60401 13.5293,24.1289 l 274.1621,270.10938 274.1621,-270.10938 c 11.715,-10.52489 13.4133,-13.4711 13.5293,-24.1289 V 68.708039 Z"
           sodipodi:nodetypes="cccccccc" /><path
           id="path658"
           style="fill:#c8c124;fill-opacity:1;stroke:none;stroke-width:1.24991px;stroke-linecap:butt;stroke-linejoin:miter;stroke-opacity:1"
           d="m -2221.0051,68.708039 287.6914,586.724611 287.6914,-586.724611 z"
           sodipodi:nodetypes="cccc" /><path
           id="path646"
           style="fill:#efeb25;fill-opacity:1;stroke:none;stroke-width:1.24991px;stroke-linecap:butt;stroke-linejoin:miter;stroke-opacity:1"
           d="m -2197.0051,84.708039 263.6914,536.724611 263.6914,-536.724611 z"
           sodipodi:nodetypes="cccc" /><g
           id="g3793"
           style="stroke-width:1.24991"><path
             style="fill:#1ca95a;fill-opacity:1;stroke:none;stroke-width:1.24991px;stroke-linecap:butt;stroke-linejoin:miter;stroke-opacity:1"
             d="m -1933.3141,717.43282 -252.1621,-244.1095 c -11.715,-10.5249 -13.4129,-13.47208 -13.5289,-24.12989 V 174.70882 Z"
             id="path685"
             sodipodi:nodetypes="ccccc" /><path
             style="fill:#1ca95a;fill-opacity:1;stroke:none;stroke-width:1.24991px;stroke-linecap:butt;stroke-linejoin:miter;stroke-opacity:1"
             d="m -1933.3133,717.43282 252.1621,-244.1095 c 11.715,-10.5249 13.4129,-13.47208 13.5289,-24.12989 V 174.70882 Z"
             id="path764"
             sodipodi:nodetypes="ccccc" /></g></g><g
         id="g3785"
         style="stroke-width:1.24991"><path
           id="path644"
           style="fill:#c8c124;fill-opacity:1;stroke:none;stroke-width:1.24991px;stroke-linecap:butt;stroke-linejoin:miter;stroke-opacity:1"
           d="m -2071.5501,78.708039 -13.0937,27.937501 c -6.866,13.2318 -2.4744,18.31205 1.7539,28.51953 l 149.5762,300.66016 149.5761,-300.66016 c 4.2283,-10.20748 8.6198,-15.28773 1.754,-28.51953 l -13.0938,-27.937501 z" /><path
           id="path754"
           style="fill:#1ca95a;fill-opacity:1;stroke:none;stroke-width:1.24991px;stroke-linecap:butt;stroke-linejoin:miter;stroke-opacity:1"
           d="m -2020.6262,18.895539 c -8.2448,0.304695 -9.6891,2.731003 -12.2852,7.240234 l -37.7324,80.509767 c -6.866,13.23181 -2.4744,18.31204 1.7539,28.51953 l 130.75,268.07813 c 1.2421,2.65208 3.5349,6.60902 4.8262,6.58203 1.2913,0.027 3.584,-3.92995 4.8261,-6.58203 l 130.75,-268.07813 c 4.2283,-10.20749 8.6199,-15.28772 1.754,-28.51953 l -37.7325,-80.509767 c -2.5961,-4.509231 -4.0403,-6.935539 -12.2851,-7.240234 h -87.3125 z" /><g
           id="g3729"
           style="fill:#efeb25;fill-opacity:1;stroke-width:1.24991"><path
             style="fill:#efeb25;fill-opacity:1;stroke:none;stroke-width:1.24991px;stroke-linecap:butt;stroke-linejoin:miter;stroke-opacity:1"
             d="M -1889.1086,46.098664 V 256.27054 l 31.5898,-63.9961 V 46.098664 Z"
             id="path3724" /><path
             style="fill:#efeb25;fill-opacity:1;stroke:none;stroke-width:1.24991px;stroke-linecap:butt;stroke-linejoin:miter;stroke-opacity:1"
             d="M -1949.1086,46.098664 V 313.82718 l 15.7949,31.99805 15.7949,-31.99805 V 46.098664 Z"
             id="path3722" /><path
             style="fill:#efeb25;fill-opacity:1;stroke:none;stroke-width:1.24991px;stroke-linecap:butt;stroke-linejoin:miter;stroke-opacity:1"
             d="M -2009.1086,46.098664 V 192.27444 l 31.5898,63.9961 V 46.098664 Z"
             id="path713" /></g></g></g><g
       id="g13441"
       transform="matrix(0.800055,0,0,0.800055,-447.19169,-37.19035)"
       style="stroke-width:1.24991"><g
         id="g4559"
         style="stroke-width:1.24991"><path
           id="rect1359"
           style="fill:#1ca95a;fill-opacity:1;stroke:none;stroke-width:0.249982;stroke-linecap:square;stroke-dasharray:none"
           d="m -2215.2415,-184.94821 c -11.8173,0 -21.332,8.36447 -21.332,18.7539 v 108.228521 c 0,10.389442 9.5147,18.751953 21.332,18.751953 h 22.6641 c 11.8174,0 21.332,-8.362511 21.332,-18.751953 v -24.732422 l -24.3515,4.929687 v 20.378906 c 0,1.683645 -1.1758,3.039063 -2.6367,3.039063 h -11.3516 c -1.461,0 -2.6367,-1.355418 -2.6367,-3.039063 V -166.77243 c 0,-1.68365 1.1757,-3.03906 2.6367,-3.03906 h 11.3516 c 1.4609,0 2.6367,1.35541 2.6367,3.03906 v 26.30273 l 24.3515,-4.92968 v -20.79493 c 0,-10.38943 -9.5146,-18.7539 -21.332,-18.7539 z" /><path
           id="path2122"
           style="fill:#1ca95a;fill-opacity:1;stroke:none;stroke-width:1.24991px;stroke-linecap:butt;stroke-linejoin:miter;stroke-opacity:1"
           d="m -2131.4114,-186.0029 -21.7187,147.421876 h 23.4746 l 2.8906,-22.595703 h 19.2988 l 2.8907,22.595703 h 23.4746 l -21.7188,-147.421876 z m 14.2969,49.42969 7.7656,60.697264 h -15.5332 z"
           sodipodi:nodetypes="ccccccccccccc" /><g
           id="g2977"
           transform="rotate(180,-2039.1155,-112.29163)"
           style="fill:#1ca95a;fill-opacity:1;stroke:none;stroke-width:1.24991"><path
             id="path2971"
             style="fill:#1ca95a;fill-opacity:1;stroke:none;stroke-width:1.24991px;stroke-linecap:butt;stroke-linejoin:miter;stroke-opacity:1"
             d="m -2081.1009,-38.580361 -21.7187,-147.421879 h -28.5918 l -21.7188,147.421879 h 23.4746 l 12.5391,-97.994139 12.541,97.994139 z"
             sodipodi:nodetypes="cccccccc" /></g><path
           id="rect2979"
           style="fill:#1ca95a;fill-opacity:1;stroke:none;stroke-width:0.249983;stroke-linecap:square"
           d="m -1913.8281,-186.00218 h 34.3579 v 147.421 h -22.9581 v -130.97273 z"
           sodipodi:nodetypes="cccccc" /><path
           id="path2986"
           style="fill:#1ca95a;fill-opacity:1;stroke:none;stroke-width:0.249983;stroke-linecap:square"
           d="m -1865.8411,-186.0029 v 16.00586 h 20.8125 v 131.416016 h 22.959 V -169.99704 h 15.9141 l 4.8984,-16.00586 z"
           sodipodi:nodetypes="ccccccccc" /><path
           id="path3753"
           style="fill:#1ca95a;fill-opacity:1;stroke:none;stroke-width:0.249983;stroke-linecap:square"
           d="m -1791.8274,-186.0029 11.3984,16.44922 v 130.972656 h 22.959 v -57.759765 h 5.4668 l 12.0742,57.759765 h 22.959 l -12.4609,-59.611328 c 8.6815,-3.218548 14.7012,-10.320098 14.7012,-18.624998 v -48.70899 c 0,-11.34378 -11.2089,-20.47656 -25.1309,-20.47656 z m 34.1055,15.35742 h 12.3008 c 3.0808,0 5.5605,2.47975 5.5605,5.56055 v 47.82617 c 0,3.0808 -2.4797,5.56055 -5.5605,5.56055 h -12.3008 z"
           sodipodi:nodetypes="cccccccccsscccsssscc" /><path
           id="path3820"
           style="fill:#1ca95a;fill-opacity:1;stroke:none;stroke-width:0.249983;stroke-linecap:square"
           d="m -1700.3274,-186.0029 26,72.17578 v 75.246096 h 22.957 v -75.246096 l 26,-72.17578 h -24.957 l -12.5215,41.65625 -12.5215,-41.65625 z"
           sodipodi:nodetypes="cccccccccc" /></g><g
         id="g13425"
         style="stroke-width:1.24991"><path
           d="m -2067.3177,-90.634293 v -28.027027 h -4.3766 l 5.9256,-7.18986 h 3.7029 v 35.216887 z"
           style="font-weight:bold;font-size:15px;line-height:1.25;font-family:FrontageCondensed-Bold;-inkscape-font-specification:'FrontageCondensed-Bold Bold';white-space:pre;fill:#1ca95a;fill-opacity:1;stroke:none;stroke-width:0.124991;stroke-dasharray:none"
           id="path5187"
           sodipodi:nodetypes="ccccccc" /><path
           d="m -2050.9472,-89.939228 q -3.2386,0 -5.2519,-2.08521 -1.9695,-2.131548 -1.9695,-5.560561 v -5.560551 q 0,-3.42902 2.0133,-5.56057 -2.0133,-2.13154 -2.0133,-5.56056 v -4.6338 q 0,-3.42901 1.9695,-5.51422 2.0133,-2.13155 5.2519,-2.13155 3.2387,0 5.2082,2.13155 2.0133,2.08521 2.0133,5.51422 v 4.6338 q 0,3.42902 -2.0133,5.56056 2.0133,2.13155 2.0133,5.56057 v 5.560551 q 0,3.475351 -1.9696,5.560561 -1.9694,2.08521 -5.2519,2.08521 z m -1.4443,-21.917872 q 0.569,0.55606 1.4443,0.55606 0.8753,0 1.4005,-0.55606 0.569,-0.60239 0.569,-1.52915 v -5.88493 q 0,-0.92676 -0.569,-1.48282 -0.5252,-0.60239 -1.4005,-0.60239 -0.8753,0 -1.4443,0.60239 -0.5251,0.55606 -0.5251,1.48282 v 5.88493 q 0,0.92676 0.5251,1.52915 z m 0,16.17196 q 0.569,0.556056 1.4443,0.556056 0.8753,0 1.4005,-0.556056 0.569,-0.602394 0.569,-1.529155 v -6.811685 q 0,-0.92676 -0.569,-1.48281 -0.5252,-0.6024 -1.4005,-0.6024 -0.8753,0 -1.4443,0.6024 -0.5251,0.55605 -0.5251,1.48281 v 6.811685 q 0,0.926761 0.5251,1.529155 z"
           style="font-weight:bold;font-size:15px;line-height:1.25;font-family:FrontageCondensed-Bold;-inkscape-font-specification:'FrontageCondensed-Bold Bold';white-space:pre;fill:#1ca95a;fill-opacity:1;stroke:none;stroke-width:0.124991;stroke-dasharray:none"
           id="path5189" /><path
           d="m -2031.9589,-89.939226 c -2.0199,0 -3.6578,-0.69507 -4.9134,-2.08521 -1.2283,-1.421032 -1.8425,-3.274735 -1.8425,-5.560744 h 4.9134 c 0,0.617841 0.1638,1.498446 0.4914,1.900042 0.3549,0.370704 0.8053,0.556056 1.3511,0.556056 0.5459,0 0.9828,-0.185352 1.3104,-0.556056 0.3548,-0.401596 0.5321,-0.911314 0.5321,-1.529155 v -5.289687 c -0.6277,0.15446 -1.2419,0.23169 -1.8425,0.23169 -2.0199,0 -3.6578,-0.69507 -4.9134,-2.08522 -1.2283,-1.42103 -1.8425,-3.27455 -1.8425,-5.56056 v -8.98241 c 0,-2.28601 0.6142,-4.12408 1.8425,-5.51422 1.2556,-1.42103 2.8935,-2.13155 4.9134,-2.13155 2.02,0 3.6442,0.71052 4.8726,2.13155 1.2556,1.39014 1.8835,3.22821 1.8835,5.51422 v 21.315483 c 0,2.316901 -0.6142,4.170421 -1.8426,5.560561 -1.2283,1.39014 -2.8662,2.08521 -4.9135,2.08521 z m -1.3511,-18.078984 c 0.3549,0.37071 0.8053,0.55606 1.3511,0.55606 0.5459,0 0.9828,-0.18535 1.3104,-0.55606 0.3548,-0.40159 0.5321,-0.91131 0.5321,-1.52915 v -9.72382 c 0,-0.61784 -0.1773,-1.11211 -0.5321,-1.48282 -0.3276,-0.40159 -0.7645,-0.60239 -1.3104,-0.60239 -0.5458,0 -0.9962,0.2008 -1.3511,0.60239 -0.3276,0.37071 -0.4914,0.86498 -0.4914,1.48282 v 9.72382 c 0,0.61784 0.1638,1.12756 0.4914,1.52915 z"
           style="font-weight:bold;font-size:15px;line-height:1.25;font-family:FrontageCondensed-Bold;-inkscape-font-specification:'FrontageCondensed-Bold Bold';white-space:pre;fill:#1ca95a;fill-opacity:1;stroke:none;stroke-width:0.124991;stroke-dasharray:none"
           id="path5191"
           sodipodi:nodetypes="sccccscscscsssscsssscscsscscssc" /><path
           d="m -2019.3451,-90.634295 5.7838,-31.026885 h -8.2347 v -4.19 h 13.0936 v 4.19 l -5.8714,31.026885 z"
           style="font-weight:bold;font-size:15px;line-height:1.25;font-family:FrontageCondensed-Bold;-inkscape-font-specification:'FrontageCondensed-Bold Bold';white-space:pre;fill:#1ca95a;fill-opacity:1;stroke:none;stroke-width:0.124991;stroke-dasharray:none"
           id="path5193"
           sodipodi:nodetypes="cccccccc" /></g></g></g></svg>
